<svg width="223" height="78" viewBox="0 0 223 78" fill="none" xmlns="http://www.w3.org/2000/svg">
<path d="M146.841 4.49915C122.402 0.305807 97.2874 -0.0515316 72.8549 3.44073L70.4915 3.79139L70.4846 3.79209L70.4767 3.79373L58.7344 5.96241L58.7196 5.96573L58.7058 5.96909C54.1989 7.07352 49.5976 8.09203 45.1804 9.50546C33.1066 12.8863 21.1204 17.3642 11.7693 24.653L11.7703 24.6531C7.23624 28.1566 3.41206 32.5356 1.94924 37.6674L1.85119 38.0212C-0.0629559 45.2329 2.82525 53.0866 9.1487 58.3802L9.7813 58.8921C19.4325 66.4539 32.9268 69.1948 45.3417 71.7017L45.3485 71.7029C51.864 72.9201 58.5042 73.6837 65.0419 74.6376L65.075 74.6409C72.0462 75.1878 79.0593 76.0051 86.0915 76.2677L86.0905 76.2686C96.5134 76.8593 106.94 77.0041 117.364 77.0673L117.377 77.0678C123.36 76.9455 129.349 76.7559 135.325 76.6091L135.335 76.6085L135.347 76.608C141.788 76.1577 148.239 75.6932 154.664 75.115L154.661 74.9781L154.677 75.1136C164.32 73.9591 178.626 71.9006 191.595 68.1647C198.079 66.2968 204.247 64.0051 209.337 61.1868C214.261 58.4599 218.219 55.2162 220.456 51.3466L220.668 50.9709C222.161 48.2281 222.565 45.0269 221.6 42.0635L221.596 42.0506C220.909 40.1208 219.603 38.3932 218.362 36.7802L218.343 36.7579C205.739 22.2197 184.516 13.5013 163.632 8.1432C175.625 10.067 187.564 12.2729 199.532 14.3019C199.569 14.3083 199.606 14.3156 199.643 14.3219L199.644 14.321L199.645 14.322L199.813 13.3357C182.219 10.3061 164.656 6.72081 146.841 4.49915ZM120.064 3.58038C124.499 3.8625 128.887 3.9812 133.278 4.37686L133.284 4.37709C142.407 5.08997 151.462 7.00295 160.233 9.08697L160.232 9.08791C175.757 13.0058 191.018 18.4679 203.637 26.9331L203.636 26.934C207.32 29.4701 210.586 32.3922 213.627 35.463C214.55 36.41 215.396 37.4034 216.162 38.4362L216.537 38.976C217.399 40.2282 218.17 41.462 218.556 42.7887C219.482 46.5445 217.758 50.145 214.8 53.1417L214.799 53.1417C209.233 58.6711 199.153 62.6536 188.206 65.5279C177.3 68.3918 165.634 70.1315 156.955 71.2353L156.923 71.2389C149.698 72.1015 142.407 72.4116 135.099 73.0015C129.151 73.1333 123.187 73.2835 117.239 73.4168C113.437 73.3733 109.635 73.3271 105.833 73.2777L105.827 73.2775C97.8006 73.2737 89.8017 72.7305 81.749 72.4202L79.2276 72.1967C73.3471 71.7038 67.494 71.3811 61.6805 70.5955L61.6766 70.5943C48.5445 68.9342 35.3188 67.1407 23.0384 62.9028C16.845 60.7126 10.9651 57.3957 7.46499 52.7179C3.38652 47.2331 2.78395 40.1711 5.92996 34.4296L6.2605 33.8563C9.7621 27.9783 16.1523 23.5085 22.8311 19.8742C39.4532 11.1242 59.2422 7.30953 78.8186 5.1665L78.8265 5.16583C84.7814 4.42984 90.7948 4.12865 96.8275 3.71823C101.321 3.63712 105.754 3.40458 110.21 3.43263L110.21 3.43166L120.064 3.58038Z" fill="#FF9067" stroke="#FF9067"/>
</svg>
